<?xml version="1.0" encoding="utf-8"?>
<!-- Generator: Adobe Illustrator 22.1.0, SVG Export Plug-In . SVG Version: 6.00 Build 0)  -->
<svg version="1.1" id="Capa_1" xmlns="http://www.w3.org/2000/svg" xmlns:xlink="http://www.w3.org/1999/xlink" x="0px" y="0px"
	 viewBox="0 0 874 378.7" style="enable-background:new 0 0 874 378.7;" xml:space="preserve">
<style type="text/css">
	.st0{fill:#FFFFFF;}
	.st1{fill:none;stroke:#000000;stroke-width:2;stroke-miterlimit:10;}
	.st2{fill:#04B4BD;}
	.st3{fill:#2E86A5;}
</style>
<g id="Capa_2_1_">
	<g>
		
			<image style="overflow:visible;opacity:0.9;" width="1371" height="873" xlink:href="9E87625A.png"  transform="matrix(1 0 0 1 -239 -237.3)">
		</image>
		<g>
			
				<image style="overflow:visible;opacity:0.9;" width="1155" height="664" xlink:href="9E87625B.png"  transform="matrix(1 0 0 1 -131 -130.3)">
			</image>
			<g>
				
					<image style="overflow:visible;opacity:0.75;" width="923" height="432" xlink:href="9E87625E.png"  transform="matrix(1 0 0 1 -15 -13.3)">
				</image>
				<g>
					<path class="st0" d="M436.4,377.6c143.3-48.9,286.5-97.8,429.8-146.7l0.1-223C738,8.3,609.7,8.6,481.4,8.9
						C323.4,9.3,165.5,9.6,7.5,10C7.3,88.4,7.2,166.8,7,245.2C150.1,289.4,293.3,333.5,436.4,377.6z"/>
					<path class="st1" d="M436.4,377.6c143.3-48.9,286.5-97.8,429.8-146.7l0.1-223C738,8.3,609.7,8.6,481.4,8.9
						C323.4,9.3,165.5,9.6,7.5,10C7.3,88.4,7.2,166.8,7,245.2C150.1,289.4,293.3,333.5,436.4,377.6z"/>
				</g>
			</g>
		</g>
	</g>
</g>
<g id="Layer_1">
	<g>
		<g>
			<path class="st2" d="M341,126.7v-3.8c0-18.3-14.9-33.3-33.3-33.3c-18.3,0-33.3,14.9-33.3,33.3c0,18.3,14.9,33.2,33.3,33.2h3.9
				c0.9,0,1.7-0.8,1.7-1.7v-7.7c0-0.9-0.8-1.7-1.7-1.7h-3.9c-12.2,0-22.2-9.9-22.2-22.2c0-12.2,9.9-22.2,22.2-22.2
				c10.2,0,19,6.9,21.5,16.6h-38.8c-0.9,0-1.7,0.8-1.7,1.7v7.7c0,0.9,0.8,1.7,1.7,1.7h48.9C340.2,128.4,341,127.6,341,126.7z"/>
			<path class="st2" d="M377.4,156.1h3.8c0.9,0,1.7-0.8,1.7-1.7v-7.7c0-0.9-0.8-1.7-1.7-1.7h-3.8c-21.8,0-22.5-21.3-22.6-22.2V65.5
				c0-0.9-0.8-1.7-1.7-1.7h-7.7c-0.9,0-1.7,0.8-1.7,1.7v57.4c0,0.8,0.3,8.5,4.3,16.3C352,146.9,360.3,156.1,377.4,156.1z"/>
			<path class="st2" d="M472.7,156.2c0.9,0,1.7-0.8,1.7-1.7v-7.6c0-0.9-0.8-1.7-1.7-1.7h-30.8c-12.1,0-22-9.9-22-22s9.9-22,22-22
				h30.8c0.9,0,1.7-0.8,1.7-1.7v-7.6c0-0.9-0.8-1.7-1.7-1.7h-30.8c-18.2,0-33,14.8-33,33s14.8,33,33,33L472.7,156.2L472.7,156.2z"/>
			<path class="st2" d="M511.6,155.9c18.2,0,33-14.8,33-33V92.2c0-0.9-0.8-1.7-1.7-1.7h-7.6c-0.9,0-1.7,0.8-1.7,1.7V123
				c0,12.1-9.9,22-22,22c-12.1,0-22-9.9-22-22V92.2c0-0.9-0.8-1.7-1.7-1.7h-7.6c-0.9,0-1.7,0.8-1.7,1.7V123
				C478.7,141.1,493.4,155.9,511.6,155.9z"/>
			<path class="st2" d="M581.1,155.5h3.8c0.9,0,1.7-0.8,1.7-1.7v-7.6c0-0.9-0.8-1.7-1.7-1.7h-3.8c-12,0-21.7-9.8-21.7-21.8
				s9.8-21.8,21.7-21.8c12,0,21.8,9.8,21.8,21.8v31c0,0.9,0.8,1.7,1.7,1.7h7.6c0.9,0,1.7-0.8,1.7-1.7v-31c0-18-14.7-32.7-32.7-32.7
				s-32.7,14.7-32.7,32.7C548.4,140.9,563,155.5,581.1,155.5z"/>
			<path class="st2" d="M620.3,155.8h7.6c0.9,0,1.7-0.8,1.7-1.7v-31c0-12,9.8-21.7,21.8-21.7h3.8c0.9,0,1.7-0.8,1.7-1.7v-7.6
				c0-0.9-0.8-1.7-1.7-1.7h-3.8c-18,0-32.7,14.7-32.7,32.7v31C618.6,155,619.4,155.8,620.3,155.8z"/>
			<path class="st2" d="M666.6,139c3.9,7.6,12,16.6,28.9,16.6h3.8c0.9,0,1.7-0.8,1.7-1.7v-7.6c0-0.9-0.8-1.7-1.7-1.7h-3.8
				c-21,0-22.1-19.6-22.1-21.7v-21.6h25.9c0.9,0,1.7-0.8,1.7-1.7V92c0-0.9-0.8-1.7-1.7-1.7h-25.9V64.6c0-0.9-0.8-1.7-1.7-1.7h-7.6
				c-0.9,0-1.7,0.8-1.7,1.7V123C662.4,124.4,662.9,131.8,666.6,139z"/>
			<path class="st2" d="M734.8,156.2c18.2,0,33-14.8,33-33s-14.8-33-33-33s-33,14.8-33,33S716.6,156.2,734.8,156.2z M734.8,101.2
				c12.1,0,22,9.9,22,22s-9.9,22-22,22s-22-9.9-22-22S722.6,101.2,734.8,101.2z"/>
			<path class="st3" d="M370.1,201c-16.6,0-30.1,13.5-30.1,30.1s13.5,30.1,30.1,30.1h3.5c0.9,0,1.7-0.8,1.7-1.7v-6.9
				c0-0.9-0.8-1.7-1.7-1.7h-3.5c-10.9,0-19.8-8.9-19.8-19.8c0-10.9,8.9-19.8,19.8-19.8c9.1,0,16.8,6.1,19.1,14.6h-34.7
				c-0.9,0-1.7,0.8-1.7,1.7v6.9c0,0.9,0.8,1.7,1.7,1.7h44.1c0.9,0,1.7-0.8,1.7-1.7V231C400.3,214.5,386.8,201,370.1,201z"/>
			<path class="st3" d="M334.3,179.8h-6.9c-0.9,0-1.7,0.8-1.7,1.7v49.7c0,10.9-8.8,19.7-19.7,19.7c-10.9,0-19.7-8.8-19.7-19.7
				s8.8-19.7,19.7-19.7h3.5c0.9,0,1.7-0.8,1.7-1.7v-6.9c0-0.9-0.8-1.7-1.7-1.7H306c-16.5,0-30,13.4-30,30c0,16.5,13.5,30,30,30
				s30-13.5,30-30v-49.7C336,180.6,335.2,179.8,334.3,179.8z"/>
			<path class="st3" d="M457.8,251h-3.5c-19.6,0-20.1-19-20.2-19.8V181c0-0.9-0.8-1.7-1.7-1.7h-6.9c-0.9,0-1.7,0.8-1.7,1.7v50.3
				c0,0.8,0.3,7.8,3.9,14.8s11.1,15.3,26.6,15.3h3.5c0.9,0,1.7-0.8,1.7-1.7v-6.9C459.5,251.8,458.8,251,457.8,251z"/>
			<path class="st3" d="M488.9,202.1c-16.3,0-29.6,13.3-29.6,29.6c0,16.4,13.3,29.7,29.6,29.7h3.4c0.9,0,1.7-0.8,1.7-1.7v-6.8
				c0-0.9-0.8-1.7-1.7-1.7h-3.4c-10.7,0-19.4-8.7-19.4-19.4s8.7-19.4,19.4-19.4c10.7,0,19.4,8.7,19.4,19.4v28c0,0.9,0.8,1.7,1.7,1.7
				h6.8c0.9,0,1.7-0.8,1.7-1.7v-28C518.5,215.4,505.2,202.1,488.9,202.1z"/>
			<path class="st3" d="M611,201.1c-16.3,0-29.6,13.3-29.6,29.6s13.3,29.7,29.6,29.7h3.4c0.9,0,1.7-0.8,1.7-1.7v-6.8
				c0-0.9-0.8-1.7-1.7-1.7H611c-10.7,0-19.4-8.7-19.4-19.4s8.7-19.4,19.4-19.4s19.4,8.7,19.4,19.4v28c0,0.9,0.8,1.7,1.7,1.7h6.8
				c0.9,0,1.7-0.8,1.7-1.7v-28C640.6,214.4,627.3,201.1,611,201.1z"/>
			<path class="st3" d="M736.7,200.8c-16.5,0-29.9,13.4-29.9,29.9s13.4,29.9,29.9,29.9s29.9-13.4,29.9-29.9
				C766.6,214.2,753.2,200.8,736.7,200.8z M736.7,250.3c-10.8,0-19.7-8.8-19.7-19.7c0-10.8,8.8-19.7,19.7-19.7
				c10.8,0,19.7,8.8,19.7,19.7S747.5,250.3,736.7,250.3z"/>
			<path class="st3" d="M701.9,179.1H695c-0.9,0-1.7,0.8-1.7,1.7v49.7c0,10.9-8.8,19.7-19.7,19.7s-19.7-8.8-19.7-19.7
				s8.8-19.7,19.7-19.7h3.5c0.9,0,1.7-0.8,1.7-1.7v-6.9c0-0.9-0.8-1.7-1.7-1.7h-3.5c-16.5,0-30,13.5-30,30s13.4,30,30,30
				c16.5,0,30-13.4,30-30v-49.7C703.6,179.9,702.8,179.1,701.9,179.1z"/>
			<path class="st3" d="M581.9,202c-0.3-0.5-0.8-0.8-1.4-0.8h-7.8c-0.7,0-1.2,0.4-1.5,1L550,246.1l-21.4-43.9c-0.3-0.6-0.9-1-1.5-1
				h-7.6c-0.6,0-1.1,0.3-1.4,0.8c-0.3,0.5-0.3,1.1-0.1,1.6l27.5,56.6c0.3,0.6,0.9,1,1.5,1h6.2c0.7,0,1.2-0.4,1.5-1l27.5-56.6
				C582.2,203.1,582.2,202.5,581.9,202z"/>
		</g>
		<g>
			<g>
				<path class="st3" d="M244.5,231.9c0,3-2.2,5.4-4.8,5.4h-41.6c-2.7,0-4.8-2.4-4.8-5.4l0,0c0-3,2.1-5.4,4.8-5.4h41.6
					C242.3,226.5,244.5,228.9,244.5,231.9L244.5,231.9z"/>
				<path class="st2" d="M244.5,246.9c0,3-2.2,5.4-4.8,5.4h-41.6c-2.7,0-4.8-2.4-4.8-5.4l0,0c0-3,2.1-5.4,4.8-5.4h41.6
					C242.3,241.5,244.5,243.9,244.5,246.9L244.5,246.9z"/>
				<path class="st2" d="M189.1,231.9c0,3-2.3,5.4-5,5.4h-72.4c-2.8,0-5-2.4-5-5.4l0,0c0-3,2.3-5.4,5-5.4h72.4
					C186.9,226.5,189.1,228.9,189.1,231.9L189.1,231.9z"/>
				<path class="st3" d="M189.1,246.9c0,3-2.3,5.4-5,5.4h-72.4c-2.8,0-5-2.4-5-5.4l0,0c0-3,2.3-5.4,5-5.4h72.4
					C186.9,241.5,189.1,243.9,189.1,246.9L189.1,246.9z"/>
			</g>
			<g>
				<polygon class="st3" points="199.5,109.1 171.5,98 171.5,85.8 147.2,85.8 147.2,98 119.2,109.1 99.7,207.8 113.4,207.8 
					129.2,135.5 135.1,170.8 129.8,203.6 159.3,203.6 188.9,203.6 183.6,170.8 189.4,135.5 205.3,207.8 219,207.8 				"/>
				<g>
					<g>
						<path class="st3" d="M160.4,85.8h-2.1V76l1.3,0.4c0,0,1.6,0.4,2.8-0.5c1.1-0.9,1.7-2.7,1.7-5.3c0-5.7-6-6.6-8.5-4.2
							c-1,1-1.5,2.4-1.5,4.2H152c0-2.3,0.8-4.3,2.2-5.7c1.3-1.2,3-1.9,4.8-1.9c3.6,0,7.3,2.6,7.3,7.6c0,3.3-0.9,5.7-2.6,7
							c-1.1,0.8-2.3,1-3.2,1l0,0L160.4,85.8L160.4,85.8z"/>
					</g>
				</g>
			</g>
			<g>
				<polygon class="st2" points="230.2,110.7 201.2,99.3 201.2,86.7 176,86.7 176,99.3 147,110.7 126.8,213.1 141,213.1 
					157.4,138.1 163.4,174.8 158,208.7 188.6,208.7 219.3,208.7 213.8,174.8 219.8,138.1 236.2,213.1 250.4,213.1 				"/>
				<g>
					<g>
						<path class="st2" d="M189.7,86.7h-2.2V76.5l1.4,0.4c0,0,1.6,0.4,2.9-0.6c1.2-0.9,1.8-2.8,1.8-5.5c0-5.9-6.2-6.9-8.8-4.3
							c-1,1-1.6,2.5-1.6,4.3H181c0-2.4,0.8-4.5,2.2-5.9c1.3-1.3,3.1-2,5-2c3.7,0,7.5,2.7,7.5,7.9c0,3.5-0.9,5.9-2.7,7.2
							c-1.2,0.9-2.4,1.1-3.4,1.1l0,0L189.7,86.7L189.7,86.7z"/>
					</g>
				</g>
			</g>
			<g>
				<g>
					<polygon class="st3" points="250.4,112.1 246.8,112.1 243.1,72.8 107,72.8 103.3,112.1 99.7,112.1 99.7,69.1 250.4,69.1 					
						"/>
				</g>
			</g>
			<path class="st3" d="M247.8,221.6v35.6H103.1v-35.6H247.8 M251.2,218.2H99.7v42.5h151.6L251.2,218.2L251.2,218.2z"/>
		</g>
	</g>
</g>
</svg>
