<?xml version="1.0" encoding="utf-8"?>
<!-- Generator: Adobe Illustrator 22.1.0, SVG Export Plug-In . SVG Version: 6.00 Build 0)  -->
<svg version="1.1" id="Layer_1" xmlns="http://www.w3.org/2000/svg" xmlns:xlink="http://www.w3.org/1999/xlink" x="0px" y="0px"
	 viewBox="0 0 668.1 198.4" style="enable-background:new 0 0 668.1 198.4;" xml:space="preserve">
<style type="text/css">
	.st0{fill:#04B4BD;}
	.st1{fill:#2E86A5;}
</style>
<g>
	<g>
		<path class="st0" d="M241.3,63.8v-3.8c0-18.3-14.9-33.3-33.3-33.3c-18.3,0-33.3,14.9-33.3,33.3c0,18.3,14.9,33.2,33.3,33.2h3.9
			c0.9,0,1.7-0.8,1.7-1.7v-7.7c0-0.9-0.8-1.7-1.7-1.7H208c-12.2,0-22.2-9.9-22.2-22.2c0-12.2,9.9-22.2,22.2-22.2
			c10.2,0,19,6.9,21.5,16.6h-38.8c-0.9,0-1.7,0.8-1.7,1.7v7.7c0,0.9,0.8,1.7,1.7,1.7h48.9C240.5,65.4,241.3,64.7,241.3,63.8z"/>
		<path class="st0" d="M277.8,93.2h3.8c0.9,0,1.7-0.8,1.7-1.7v-7.7c0-0.9-0.8-1.7-1.7-1.7h-3.8c-21.8,0-22.5-21.3-22.6-22.2V2.6
			c0-0.9-0.8-1.7-1.7-1.7h-7.7c-0.9,0-1.7,0.8-1.7,1.7V60c0,0.8,0.3,8.5,4.3,16.3C252.4,84,260.7,93.2,277.8,93.2z"/>
		<path class="st0" d="M373,93.2c0.9,0,1.7-0.8,1.7-1.7V84c0-0.9-0.8-1.7-1.7-1.7h-30.8c-12.1,0-22-9.9-22-22c0-12.1,9.9-22,22-22
			H373c0.9,0,1.7-0.8,1.7-1.7V29c0-0.9-0.8-1.7-1.7-1.7h-30.8c-18.2,0-33,14.8-33,33c0,18.2,14.8,33,33,33L373,93.2L373,93.2z"/>
		<path class="st0" d="M411.9,93c18.2,0,33-14.8,33-33V29.3c0-0.9-0.8-1.7-1.7-1.7h-7.6c-0.9,0-1.7,0.8-1.7,1.7V60
			c0,12.1-9.9,22-22,22c-12.1,0-22-9.9-22-22V29.3c0-0.9-0.8-1.7-1.7-1.7h-7.6c-0.9,0-1.7,0.8-1.7,1.7V60
			C379,78.2,393.8,93,411.9,93z"/>
		<path class="st0" d="M481.4,92.6h3.8c0.9,0,1.7-0.8,1.7-1.7v-7.6c0-0.9-0.8-1.7-1.7-1.7h-3.8c-12,0-21.7-9.8-21.7-21.8
			c0-12,9.8-21.8,21.7-21.8c12,0,21.8,9.8,21.8,21.8v31c0,0.9,0.8,1.7,1.7,1.7h7.6c0.9,0,1.7-0.8,1.7-1.7v-31
			c0-18-14.7-32.7-32.7-32.7c-18,0-32.7,14.7-32.7,32.7C448.7,78,463.3,92.6,481.4,92.6z"/>
		<path class="st0" d="M520.6,92.9h7.6c0.9,0,1.7-0.8,1.7-1.7v-31c0-12,9.8-21.7,21.8-21.7h3.8c0.9,0,1.7-0.8,1.7-1.7v-7.6
			c0-0.9-0.8-1.7-1.7-1.7h-3.8c-18,0-32.7,14.7-32.7,32.7v31C518.9,92.1,519.7,92.9,520.6,92.9z"/>
		<path class="st0" d="M566.9,76.1c3.9,7.6,12,16.6,28.9,16.6h3.8c0.9,0,1.7-0.8,1.7-1.7v-7.6c0-0.9-0.8-1.7-1.7-1.7h-3.8
			c-21,0-22.1-19.6-22.1-21.7V38.3h25.9c0.9,0,1.7-0.8,1.7-1.7v-7.6c0-0.9-0.8-1.7-1.7-1.7h-25.9V1.7c0-0.9-0.8-1.7-1.7-1.7h-7.6
			c-0.9,0-1.7,0.8-1.7,1.7l0,58.4C562.8,61.5,563.2,68.8,566.9,76.1z"/>
		<path class="st0" d="M635.1,93.2c18.2,0,33-14.8,33-33c0-18.2-14.8-33-33-33s-33,14.8-33,33C602.1,78.4,616.9,93.2,635.1,93.2z
			 M635.1,38.3c12.1,0,22,9.9,22,22c0,12.1-9.9,22-22,22c-12.1,0-22-9.9-22-22C613.1,48.1,623,38.3,635.1,38.3z"/>
		<path class="st1" d="M270.5,138c-16.6,0-30.1,13.5-30.1,30.1c0,16.6,13.5,30.1,30.1,30.1h3.5c0.9,0,1.7-0.8,1.7-1.7v-6.9
			c0-0.9-0.8-1.7-1.7-1.7h-3.5c-10.9,0-19.8-8.9-19.8-19.8c0-10.9,8.9-19.8,19.8-19.8c9.1,0,16.8,6.1,19.1,14.6h-34.7
			c-0.9,0-1.7,0.8-1.7,1.7v6.9c0,0.9,0.8,1.7,1.7,1.7h44.1c0.9,0,1.7-0.8,1.7-1.7v-3.5C300.6,151.6,287.1,138,270.5,138z"/>
		<path class="st1" d="M234.6,116.9h-6.9c-0.9,0-1.7,0.8-1.7,1.7v49.7c0,10.9-8.8,19.7-19.7,19.7c-10.9,0-19.7-8.8-19.7-19.7
			c0-10.9,8.8-19.7,19.7-19.7h3.5c0.9,0,1.7-0.8,1.7-1.7V140c0-0.9-0.8-1.7-1.7-1.7h-3.5c-16.5,0-30,13.4-30,30
			c0,16.5,13.5,30,30,30c16.5,0,30-13.5,30-30v-49.7C236.3,117.7,235.6,116.9,234.6,116.9z"/>
		<path class="st1" d="M358.1,188.1h-3.5c-19.6,0-20.1-19-20.2-19.8v-50.2c0-0.9-0.8-1.7-1.7-1.7h-6.9c-0.9,0-1.7,0.8-1.7,1.7v50.3
			c0,0.8,0.3,7.8,3.9,14.8c3.6,7,11.1,15.3,26.6,15.3h3.5c0.9,0,1.7-0.8,1.7-1.7v-6.9C359.9,188.9,359.1,188.1,358.1,188.1z"/>
		<path class="st1" d="M389.2,139.1c-16.3,0-29.6,13.3-29.6,29.6c0,16.4,13.3,29.7,29.6,29.7h3.4c0.9,0,1.7-0.8,1.7-1.7v-6.8
			c0-0.9-0.8-1.7-1.7-1.7h-3.4c-10.7,0-19.4-8.7-19.4-19.4s8.7-19.4,19.4-19.4c10.7,0,19.4,8.7,19.4,19.4v28c0,0.9,0.8,1.7,1.7,1.7
			h6.8c0.9,0,1.7-0.8,1.7-1.7v-28C418.8,152.4,405.5,139.1,389.2,139.1z"/>
		<path class="st1" d="M511.3,138.1c-16.3,0-29.6,13.3-29.6,29.6c0,16.3,13.3,29.7,29.6,29.7h3.4c0.9,0,1.7-0.8,1.7-1.7v-6.8
			c0-0.9-0.8-1.7-1.7-1.7h-3.4c-10.7,0-19.4-8.7-19.4-19.4c0-10.7,8.7-19.4,19.4-19.4c10.7,0,19.4,8.7,19.4,19.4v28
			c0,0.9,0.8,1.7,1.7,1.7h6.8c0.9,0,1.7-0.8,1.7-1.7v-28C540.9,151.4,527.6,138.1,511.3,138.1z"/>
		<path class="st1" d="M637,137.8c-16.5,0-29.9,13.4-29.9,29.9c0,16.5,13.4,29.9,29.9,29.9c16.5,0,29.9-13.4,29.9-29.9
			C666.9,151.2,653.5,137.8,637,137.8z M637,187.4c-10.8,0-19.7-8.8-19.7-19.7c0-10.8,8.8-19.7,19.7-19.7c10.8,0,19.7,8.8,19.7,19.7
			C656.7,178.6,647.9,187.4,637,187.4z"/>
		<path class="st1" d="M602.2,116.2h-6.9c-0.9,0-1.7,0.8-1.7,1.7v49.7c0,10.9-8.8,19.7-19.7,19.7c-10.9,0-19.7-8.8-19.7-19.7
			c0-10.9,8.8-19.7,19.7-19.7h3.5c0.9,0,1.7-0.8,1.7-1.7v-6.9c0-0.9-0.8-1.7-1.7-1.7h-3.5c-16.5,0-30,13.5-30,30
			c0,16.5,13.4,30,30,30c16.5,0,30-13.4,30-30v-49.7C603.9,116.9,603.2,116.2,602.2,116.2z"/>
		<path class="st1" d="M482.2,139.1c-0.3-0.5-0.8-0.8-1.4-0.8H473c-0.7,0-1.2,0.4-1.5,1l-21.2,43.9l-21.4-43.9c-0.3-0.6-0.9-1-1.5-1
			h-7.6c-0.6,0-1.1,0.3-1.4,0.8c-0.3,0.5-0.3,1.1-0.1,1.6l27.5,56.6c0.3,0.6,0.9,1,1.5,1h6.2c0.7,0,1.2-0.4,1.5-1l27.5-56.6
			C482.5,140.2,482.5,139.6,482.2,139.1z"/>
	</g>
	<g>
		<g>
			<path class="st1" d="M144.8,169c0,3-2.2,5.4-4.8,5.4H98.4c-2.7,0-4.8-2.4-4.8-5.4l0,0c0-3,2.1-5.4,4.8-5.4H140
				C142.7,163.6,144.8,166,144.8,169L144.8,169z"/>
			<path class="st0" d="M144.8,184c0,3-2.2,5.4-4.8,5.4H98.4c-2.7,0-4.8-2.4-4.8-5.4l0,0c0-3,2.1-5.4,4.8-5.4H140
				C142.7,178.6,144.8,181,144.8,184L144.8,184z"/>
			<path class="st0" d="M89.5,169c0,3-2.3,5.4-5,5.4H12c-2.8,0-5-2.4-5-5.4l0,0c0-3,2.3-5.4,5-5.4h72.4
				C87.2,163.6,89.5,166,89.5,169L89.5,169z"/>
			<path class="st1" d="M89.5,184c0,3-2.3,5.4-5,5.4H12c-2.8,0-5-2.4-5-5.4l0,0c0-3,2.3-5.4,5-5.4h72.4
				C87.2,178.6,89.5,181,89.5,184L89.5,184z"/>
		</g>
		<g>
			<polygon class="st1" points="99.8,46.1 71.8,35 71.8,22.9 47.5,22.9 47.5,35 19.5,46.1 0,144.9 13.7,144.9 29.6,72.5 35.4,107.9 
				30.1,140.6 59.7,140.6 89.2,140.6 83.9,107.9 89.8,72.5 105.6,144.9 119.3,144.9 			"/>
			<g>
				<g>
					<path class="st1" d="M60.7,22.9h-2.1v-9.8l1.3,0.4c0,0,1.6,0.4,2.8-0.5c1.1-0.9,1.7-2.7,1.7-5.3c0-5.7-6-6.6-8.5-4.2
						c-1,1-1.5,2.4-1.5,4.2h-2.1c0-2.3,0.8-4.3,2.2-5.7c1.3-1.2,3-1.9,4.8-1.9c3.6,0,7.3,2.6,7.3,7.6c0,3.3-0.9,5.7-2.6,7
						c-1.1,0.8-2.3,1-3.2,1h0V22.9z"/>
				</g>
			</g>
		</g>
		<g>
			<polygon class="st0" points="130.5,47.8 101.5,36.3 101.5,23.7 76.4,23.7 76.4,36.3 47.4,47.8 27.1,150.1 41.3,150.1 57.8,75.2 
				63.8,111.8 58.3,145.8 88.9,145.8 119.6,145.8 114.1,111.8 120.1,75.2 136.5,150.1 150.8,150.1 			"/>
			<g>
				<g>
					<path class="st0" d="M90,23.7h-2.2V13.5l1.4,0.4c0,0,1.6,0.4,2.9-0.6c1.2-0.9,1.8-2.8,1.8-5.5c0-5.9-6.2-6.9-8.8-4.3
						c-1,1-1.6,2.5-1.6,4.3h-2.2c0-2.4,0.8-4.5,2.2-5.9c1.3-1.3,3.1-2,5-2c3.7,0,7.5,2.7,7.5,7.9c0,3.5-0.9,5.9-2.7,7.2
						C92.2,16,91,16.2,90,16.2l0,0L90,23.7L90,23.7z"/>
				</g>
			</g>
		</g>
		<g>
			<g>
				<polygon class="st1" points="150.8,49.1 147.1,49.1 143.5,9.9 7.3,9.9 3.7,49.1 0,49.1 0,6.2 150.8,6.2 				"/>
			</g>
		</g>
		<path class="st1" d="M148.1,158.7v35.6H3.4v-35.6H148.1 M151.6,155.2H0v42.5h151.6V155.2L151.6,155.2z"/>
	</g>
</g>
</svg>
